<svg xmlns="http://www.w3.org/2000/svg" viewBox="0 0 99.47 101.62"><path d="M668.42,403.37l0-.17,4.95-28.41.13.11,21.83,18.84-.16.06Zm5.12-28.2-4.87,27.9,26.31-9.4Z" transform="translate(-633.27 -333.3)" style="fill:#f5f8f2"/><path d="M670.36,406v-.17l.47-30,.15.1,25.53,15.82-.16.09Zm.67-29.85-.46,29.5,25.53-13.95Z" transform="translate(-633.27 -333.3)" style="fill:#f5f8f2"/><path d="M672.78,408.34l0-.18-4.41-31,.18.07,28.84,12.13Zm-4.17-30.82,4.33,30.42,24-18.51Z" transform="translate(-633.27 -333.3)" style="fill:#f5f8f2"/><path d="M675.65,410.38l0-.18L666,379l.19,0,31.65,7.77-.13.14Zm-9.31-31,9.42,30.6,21.67-23Z" transform="translate(-633.27 -333.3)" style="fill:#f5f8f2"/><path d="M679,412l-.09-.18-14.94-30.49.2,0L698,384.2l-.11.16Zm-14.64-30.4L679,411.55l18.55-27.15Z" transform="translate(-633.27 -333.3)" style="fill:#f5f8f2"/><path d="M682.6,413.15l-.12-.17-20.34-28.93,35.48-2.61Zm-20-28.89,20,28.41,14.66-31Z" transform="translate(-633.27 -333.3)" style="fill:#f5f8f2"/><path d="M686.54,413.73l-.15-.16-25.64-26.45,36.08-8.46-.06.21Zm-25.3-26.47,25.18,26L696.47,379Z" transform="translate(-633.27 -333.3)" style="fill:#f5f8f2"/><path d="M690.69,413.68l-.18-.13-30.69-23,.21-.09,35.53-14.5,0,.23Zm-30.34-23.1,30.14,22.62,4.75-36.86Z" transform="translate(-633.27 -333.3)" style="fill:#f5f8f2"/><path d="M695,413l-.21-.11-35.33-18.71.2-.12,34.19-20.7Zm-35-18.83,34.7,18.37-1.12-38.71Z" transform="translate(-633.27 -333.3)" style="fill:#f5f8f2"/><path d="M699.23,411.52l-.24-.08L659.6,398l.19-.16,31.8-26.87,0,.24Zm-39.07-13.67,38.69,13.24-7.45-39.64Z" transform="translate(-633.27 -333.3)" style="fill:#f5f8f2"/><path d="M703.38,409.34l-.25,0-42.73-7.46.17-.2,28.34-32.83.09.24ZM661,401.64l42,7.32L688.8,369.39Z" transform="translate(-633.27 -333.3)" style="fill:#f5f8f2"/><path d="M707.3,406.42H707l-45.18-.71,23.95-38.62Zm-44.89-1,44.37.69-21-38.4Z" transform="translate(-633.27 -333.3)" style="fill:#f5f8f2"/><path d="M664,409.46l.11-.27,18.24-43.38.17.22,28.35,36.75Zm18.43-43-17.91,42.61,45.76-6.52Z" transform="translate(-633.27 -333.3)" style="fill:#f5f8f2"/><path d="M666.8,413l.07-.29,11.69-47.6.21.2,35.16,33.18-.27.09Zm12-47.25-11.49,46.76,46-14.17Z" transform="translate(-633.27 -333.3)" style="fill:#f5f8f2"/><path d="M670.25,416.11l0-.31,4.27-50.88.25.17,41.58,28.41-.27.14Zm4.6-50.57-4.2,50,45-22.07Z" transform="translate(-633.27 -333.3)" style="fill:#f5f8f2"/><path d="M674.32,418.79l-3.91-53.37L718.1,388l-.26.18ZM670.81,366l3.83,52.11,42.74-30.05Z" transform="translate(-633.27 -333.3)" style="fill:#f5f8f2"/><path d="M678.94,420.87l-.07-.32-12.65-53.94L719,382.08l-.23.23Zm-12.2-53.72,12.42,53,39.08-37.88Z" transform="translate(-633.27 -333.3)" style="fill:#f5f8f2"/><path d="M684,422.27,662.1,368.51l.34,0,56.46,7.29ZM662.73,369l21.41,52.49,34-45.34Z" transform="translate(-633.27 -333.3)" style="fill:#f5f8f2"/><path d="M689.51,422.88l-.18-.31-31.15-51.43h.36l59.27-1.71-.16.32ZM658.9,371.53,689.49,422l27.63-52.19Z" transform="translate(-633.27 -333.3)" style="fill:#f5f8f2"/><path d="M695.24,422.61l-.24-.29-40.42-47.83.36-.07L715.64,363Zm-39.86-47.84,39.7,47L715,363.56Z" transform="translate(-633.27 -333.3)" style="fill:#f5f8f2"/><path d="M701.09,421.4l-.3-.25-49.38-42.63.36-.13,60.6-21.64-.07.38Zm-48.81-42.72,48.51,41.87,11-63.12Z" transform="translate(-633.27 -333.3)" style="fill:#f5f8f2"/><path d="M706.91,419.21l-58.1-36L708,350.85v.4Zm-57.17-36,56.72,35.18,1-66.74Z" transform="translate(-633.27 -333.3)" style="fill:#f5f8f2"/><path d="M712.54,416l-.39-.17L646.9,388.4l55.6-42.9Zm-64.69-27.72,64.09,26.94-9.8-68.83Z" transform="translate(-633.27 -333.3)" style="fill:#f5f8f2"/><path d="M717.81,411.78l-72-17.7L696,340.88l.12.42Zm-71.07-18,70.33,17.28-21.3-69.22Z" transform="translate(-633.27 -333.3)" style="fill:#f5f8f2"/><path d="M722.55,406.58l-77-6.47,43-62.92.2.41Zm-76.06-6.92L721.67,406l-33.19-67.75Z" transform="translate(-633.27 -333.3)" style="fill:#f5f8f2"/><path d="M646.3,406.35l34-71.74.27.39,46,65.46-.49,0Zm34.08-70.65-33.18,70L725.57,400Z" transform="translate(-633.27 -333.3)" style="fill:#f5f8f2"/><path d="M648.09,412.65l23.28-79.35,58.35,60.21-.49.11Zm23.55-78.25-22.73,77.47,79.7-18.69Z" transform="translate(-633.27 -333.3)" style="fill:#f5f8f2"/><path d="M651,418.84l11-85.43,69.85,52.43Zm11.47-84.34-10.75,83.4,79-32.21Z" transform="translate(-633.27 -333.3)" style="fill:#f5f8f2"/><path d="M654.91,424.74v-.54l-2.57-89.15.47.25,79.93,42.31-.46.28ZM653,336.09l2.52,87.57,76-46Z" transform="translate(-633.27 -333.3)" style="fill:#f5f8f2"/><path d="M660,430.16l-.11-.54-17.17-91.31.52.18L732.33,369Zm-16.44-90.88L660.38,429l70.67-59.71Z" transform="translate(-633.27 -333.3)" style="fill:#f5f8f2"/><path d="M666,434.92l-.2-.54-32.54-91.15.56.1,96.68,16.87Zm-31.72-90.83,32,89.52,63-73Z" transform="translate(-633.27 -333.3)" style="fill:#f5f8f2"/></svg>