<svg xmlns="http://www.w3.org/2000/svg" viewBox="0 0 286.12 277.63"><path d="M683.11,388.1l-.05,0-3.32-1.78a.17.17,0,0,1-.06-.1l-.11-3.76a.11.11,0,0,1,.06-.1l3.2-2a.11.11,0,0,1,.11,0l3.32,1.79a.15.15,0,0,1,.06.09l.11,3.76a.14.14,0,0,1-.06.11l-3.2,2Zm-.22-7.73,0,0-3.2,2a.08.08,0,0,0,0,.07l.11,3.76a.1.1,0,0,0,0,.08l3.31,1.78a.1.1,0,0,0,.09,0l3.2-2a.07.07,0,0,0,0-.07h0l-.11-3.77a.08.08,0,0,0,0-.07l-3.31-1.79Z" transform="translate(-539.94 -245.41)" style="fill:#f8f5f2"/><path d="M681.6,388.14a.15.15,0,0,1-.1,0L678.92,385a.11.11,0,0,1,0-.12l1.4-3.79a.14.14,0,0,1,.09-.08l4-.68h0a.11.11,0,0,1,.09,0l2.58,3.12a.09.09,0,0,1,0,.11l-1.4,3.8a.14.14,0,0,1-.1.08l-4,.68Zm2.81-7.81h0l-4,.68a.07.07,0,0,0-.07.06l-1.41,3.79a.1.1,0,0,0,0,.09l2.58,3.12a.11.11,0,0,0,.08,0h0l4-.68a.11.11,0,0,0,.07-.06l1.41-3.8a.1.1,0,0,0,0-.09l-2.58-3.11A.13.13,0,0,0,684.41,380.33Z" transform="translate(-539.94 -245.41)" style="fill:#f8f5f2"/><path d="M684.32,388.5h0l-4.25-.93a.12.12,0,0,1-.09-.09l-1.33-4.15a.13.13,0,0,1,0-.12l2.93-3.22a.15.15,0,0,1,.13,0l4.25.93a.12.12,0,0,1,.09.09l1.33,4.14a.14.14,0,0,1,0,.13l-2.93,3.22A.13.13,0,0,1,684.32,388.5ZM681.68,380a.11.11,0,0,0-.08,0l-2.93,3.22a.1.1,0,0,0,0,.09l1.33,4.15a.08.08,0,0,0,.07.07l4.25.93h0a.11.11,0,0,0,.08,0l2.93-3.22a.12.12,0,0,0,0-.1L686,381s0-.07-.08-.07L681.7,380Z" transform="translate(-539.94 -245.41)" style="fill:#f8f5f2"/><path d="M682.65,389l-.08,0-3.87-2.64a.16.16,0,0,1-.06-.13l.36-4.67a.14.14,0,0,1,.07-.11l4.22-2a.14.14,0,0,1,.14,0l3.87,2.64a.16.16,0,0,1,.06.12l-.35,4.67a.17.17,0,0,1-.08.12l-4.22,2Zm.7-9.58h0l-4.22,2a.1.1,0,0,0-.06.09l-.35,4.66a.1.1,0,0,0,0,.1l3.87,2.64a.14.14,0,0,0,.11,0l4.21-2a.1.1,0,0,0,.06-.09l.35-4.67a.08.08,0,0,0,0-.09l-3.87-2.64Z" transform="translate(-539.94 -245.41)" style="fill:#f8f5f2"/><path d="M680.77,388.88a.16.16,0,0,1-.13-.06l-2.79-4.19a.16.16,0,0,1,0-.15l2.23-4.51a.16.16,0,0,1,.13-.08l5-.33h0a.17.17,0,0,1,.13.07l2.79,4.19a.16.16,0,0,1,0,.15l-2.23,4.51a.16.16,0,0,1-.13.08l-5,.32Zm-.66-8.89-2.23,4.5a.13.13,0,0,0,0,.12l2.79,4.19a.14.14,0,0,0,.1.05h0l5-.32a.11.11,0,0,0,.09-.07l2.23-4.51a.11.11,0,0,0,0-.11l-2.79-4.19a.12.12,0,0,0-.1,0h0l-5,.32a.1.1,0,0,0-.09.07Z" transform="translate(-539.94 -245.41)" style="fill:#f8f5f2"/><path d="M684.1,389.68H684l-5.13-1.7a.16.16,0,0,1-.11-.13l-1.09-5.29a.14.14,0,0,1,0-.16l4-3.6a.15.15,0,0,1,.16,0l5.13,1.7a.15.15,0,0,1,.11.12l1.1,5.3a.16.16,0,0,1,0,.15l-4,3.6A.13.13,0,0,1,684.1,389.68Zm-2.2-10.88-.08,0-4,3.6a.13.13,0,0,0,0,.12l1.1,5.3a.12.12,0,0,0,.08.09l5.14,1.7a.11.11,0,0,0,.12,0l4-3.59a.14.14,0,0,0,0-.12l-1.1-5.3a.12.12,0,0,0-.08-.09l-5.14-1.7Z" transform="translate(-539.94 -245.41)" style="fill:#f8f5f2"/><path d="M682,390.12a.19.19,0,0,1-.12,0l-4.43-3.76a.18.18,0,0,1-.06-.17l1-5.72a.21.21,0,0,1,.12-.14l5.47-2a.15.15,0,0,1,.17,0l4.44,3.76a.17.17,0,0,1,.06.16l-1,5.73a.18.18,0,0,1-.11.13l-5.48,2Zm-4.52-3.84,4.43,3.77a.13.13,0,0,0,.13,0l5.48-2a.12.12,0,0,0,.09-.1l1-5.72a.15.15,0,0,0,0-.13l-4.44-3.76a.16.16,0,0,0-.13,0l-5.48,2a.14.14,0,0,0-.09.11l-1,5.72a.11.11,0,0,0,.05.12Z" transform="translate(-539.94 -245.41)" style="fill:#f8f5f2"/><path d="M685.91,390h0l-6.25-.25a.2.2,0,0,1-.16-.1l-2.91-5.54a.19.19,0,0,1,0-.19l3.35-5.29a.18.18,0,0,1,.15-.08h0l6.25.25a.18.18,0,0,1,.16.1l2.91,5.54a.19.19,0,0,1,0,.19l-3.34,5.28A.19.19,0,0,1,685.91,390Zm-6.26-.3,6.25.26h0a.15.15,0,0,0,.12-.07l3.34-5.29a.14.14,0,0,0,0-.14l-2.91-5.54a.13.13,0,0,0-.12-.08l-6.25-.25h0a.15.15,0,0,0-.12.07l-3.34,5.28a.16.16,0,0,0,0,.15l2.91,5.54a.14.14,0,0,0,.12.07Z" transform="translate(-539.94 -245.41)" style="fill:#f8f5f2"/><path d="M683.67,391.12l-.09,0-6.13-2.77a.19.19,0,0,1-.11-.16l-.67-6.7a.18.18,0,0,1,.08-.18l5.47-3.92a.18.18,0,0,1,.2,0l6.13,2.77a.19.19,0,0,1,.11.16l.67,6.69a.21.21,0,0,1-.08.19l-5.47,3.92A.15.15,0,0,1,683.67,391.12Zm-1.34-13.74a.15.15,0,0,0-.09,0l-5.46,3.93a.14.14,0,0,0-.06.14l.66,6.69a.16.16,0,0,0,.09.13l6.13,2.77a.18.18,0,0,0,.16,0l5.46-3.92a.15.15,0,0,0,.06-.14l-.66-6.7a.16.16,0,0,0-.09-.12l-6.13-2.77Z" transform="translate(-539.94 -245.41)" style="fill:#f8f5f2"/><path d="M681,391.38a.2.2,0,0,1-.16-.07l-5-5.23a.2.2,0,0,1-.06-.21l2-6.94a.23.23,0,0,1,.15-.15l7-1.71h0a.24.24,0,0,1,.16.07l5,5.23a.21.21,0,0,1,.06.21l-2,6.94a.19.19,0,0,1-.15.15l-7,1.71ZM685,377.12h0l-7,1.71a.17.17,0,0,0-.11.12l-2,6.94a.19.19,0,0,0,0,.16l5,5.23a.18.18,0,0,0,.16.05l7-1.71a.2.2,0,0,0,.12-.12l2-6.94a.18.18,0,0,0,0-.16l-5-5.23A.13.13,0,0,0,685,377.12Z" transform="translate(-539.94 -245.41)" style="fill:#f8f5f2"/><path d="M685.87,391.68h0l-7.7-1.12a.25.25,0,0,1-.18-.15l-2.87-7.23a.24.24,0,0,1,0-.23l4.82-6.1a.23.23,0,0,1,.22-.08l7.7,1.12a.24.24,0,0,1,.18.14l2.87,7.23a.23.23,0,0,1,0,.23l-4.82,6.1A.25.25,0,0,1,685.87,391.68Zm-5.74-14.86a.15.15,0,0,0-.14.07l-4.82,6.1a.16.16,0,0,0,0,.17l2.87,7.23a.19.19,0,0,0,.14.11l7.7,1.13a.17.17,0,0,0,.16-.07l4.83-6.1a.19.19,0,0,0,0-.18L688,378.05a.18.18,0,0,0-.14-.1l-7.7-1.13Z" transform="translate(-539.94 -245.41)" style="fill:#f8f5f2"/><path d="M683,392.84a.28.28,0,0,1-.12,0l-7.22-4.22a.25.25,0,0,1-.13-.22l0-8.36a.26.26,0,0,1,.13-.22l7.26-4.14a.28.28,0,0,1,.25,0l7.22,4.23a.23.23,0,0,1,.13.21l0,8.37a.24.24,0,0,1-.13.21l-7.26,4.14A.2.2,0,0,1,683,392.84Zm.1-17.17-.1,0-7.26,4.14a.21.21,0,0,0-.1.17l-.05,8.36a.19.19,0,0,0,.1.17l7.22,4.22a.17.17,0,0,0,.19,0l7.26-4.14a.19.19,0,0,0,.1-.16l.05-8.37a.18.18,0,0,0-.1-.16l-7.22-4.22Z" transform="translate(-539.94 -245.41)" style="fill:#f8f5f2"/><path d="M679.59,392.81a.29.29,0,0,1-.22-.1l-5.49-7.12a.27.27,0,0,1,0-.27l3.41-8.32a.29.29,0,0,1,.22-.16l8.91-1.2h0a.26.26,0,0,1,.21.11l5.49,7.12a.25.25,0,0,1,0,.26l-3.41,8.32a.3.3,0,0,1-.22.17l-8.91,1.2Zm6.83-17.11h0l-8.91,1.2a.21.21,0,0,0-.17.13l-3.41,8.32a.19.19,0,0,0,0,.2l5.49,7.12a.21.21,0,0,0,.19.08l8.92-1.21a.2.2,0,0,0,.16-.12l3.41-8.32a.2.2,0,0,0,0-.2l-5.5-7.12A.21.21,0,0,0,686.42,375.7Z" transform="translate(-539.94 -245.41)" style="fill:#f8f5f2"/><path d="M685.61,393.82h-.07l-9.37-2.39a.26.26,0,0,1-.2-.2l-2.62-9.31a.29.29,0,0,1,.07-.28l6.76-6.92a.32.32,0,0,1,.28-.08l9.37,2.39a.32.32,0,0,1,.21.21l2.61,9.31a.29.29,0,0,1-.07.28l-6.76,6.91A.27.27,0,0,1,685.61,393.82Zm-5.38-19.06-6.76,6.92a.23.23,0,0,0-.05.21L676,391.2a.22.22,0,0,0,.16.16l9.37,2.39a.22.22,0,0,0,.21-.06l6.76-6.92a.25.25,0,0,0,.05-.22L690,377.24a.22.22,0,0,0-.16-.15l-9.37-2.39a.21.21,0,0,0-.21.06Z" transform="translate(-539.94 -245.41)" style="fill:#f8f5f2"/><path d="M681.86,394.87a.33.33,0,0,1-.19-.06l-8.38-6.16a.32.32,0,0,1-.12-.28L674.31,378a.33.33,0,0,1,.19-.25L684,373.6a.32.32,0,0,1,.31,0l8.38,6.16a.3.3,0,0,1,.12.28l-1.14,10.33a.32.32,0,0,1-.19.26L682,394.84A.27.27,0,0,1,681.86,394.87Zm2.28-21.22-.09,0-9.52,4.18a.22.22,0,0,0-.14.19l-1.15,10.33a.23.23,0,0,0,.1.22l8.37,6.16a.26.26,0,0,0,.24,0l9.52-4.18a.26.26,0,0,0,.15-.19l1.14-10.34a.25.25,0,0,0-.1-.22l-8.37-6.15A.3.3,0,0,0,684.14,373.65Z" transform="translate(-539.94 -245.41)" style="fill:#f8f5f2"/><path d="M677.7,394.4a.34.34,0,0,1-.29-.16l-5.87-9.51a.34.34,0,0,1,0-.34l5.3-9.84a.38.38,0,0,1,.29-.18l11.17-.32h0a.34.34,0,0,1,.29.16l5.87,9.51a.33.33,0,0,1,0,.33l-5.3,9.85a.34.34,0,0,1-.29.17l-11.17.33Zm10.6-20.28h0l-11.17.33a.3.3,0,0,0-.22.14l-5.3,9.84a.27.27,0,0,0,0,.26l5.87,9.51a.25.25,0,0,0,.22.12h0l11.17-.33a.26.26,0,0,0,.22-.13l5.3-9.84a.27.27,0,0,0,0-.26l-5.87-9.51A.26.26,0,0,0,688.3,374.12Z" transform="translate(-539.94 -245.41)" style="fill:#f8f5f2"/><path d="M685,396.43a.25.25,0,0,1-.12,0l-11.28-4.17a.39.39,0,0,1-.23-.28l-2-11.85a.36.36,0,0,1,.13-.34l9.25-7.67a.34.34,0,0,1,.35-.07l11.28,4.18a.35.35,0,0,1,.23.28l2,11.85a.36.36,0,0,1-.13.33l-9.25,7.68A.36.36,0,0,1,685,396.43Zm-4-24.33a.3.3,0,0,0-.18.06l-9.25,7.68a.28.28,0,0,0-.09.26l2,11.85a.28.28,0,0,0,.17.21l11.28,4.17a.25.25,0,0,0,.27-.05l9.25-7.67a.28.28,0,0,0,.09-.26l-2-11.85a.26.26,0,0,0-.17-.21l-11.28-4.17A.15.15,0,0,0,681,372.1Z" transform="translate(-539.94 -245.41)" style="fill:#f8f5f2"/><path d="M680.24,397.24a.42.42,0,0,1-.26-.1l-9.56-8.7a.4.4,0,0,1-.11-.37l2.75-12.63a.38.38,0,0,1,.27-.29l12.31-3.92a.36.36,0,0,1,.38.08l9.56,8.7a.38.38,0,0,1,.11.37L692.94,393a.39.39,0,0,1-.26.28l-12.32,3.93Zm5.52-25.94h-.09l-12.32,3.93a.3.3,0,0,0-.2.22l-2.75,12.63a.27.27,0,0,0,.09.28l9.55,8.7a.31.31,0,0,0,.29.06l12.32-3.92a.3.3,0,0,0,.2-.22l2.75-12.63a.27.27,0,0,0-.09-.28l-9.55-8.7A.32.32,0,0,0,685.76,371.3Z" transform="translate(-539.94 -245.41)" style="fill:#f8f5f2"/><path d="M689,397.16h0l-13.86-1a.41.41,0,0,1-.34-.24l-6-12.52a.4.4,0,0,1,0-.42l7.83-11.48a.44.44,0,0,1,.38-.18l13.86,1.05a.4.4,0,0,1,.34.23l6,12.53a.38.38,0,0,1,0,.41L689.37,397A.41.41,0,0,1,689,397.16Zm-12-25.78a.32.32,0,0,0-.27.14L668.88,383a.31.31,0,0,0,0,.32l6,12.52a.33.33,0,0,0,.26.18L689,397.07a.33.33,0,0,0,.29-.14l7.83-11.48a.31.31,0,0,0,0-.32l-6-12.52a.29.29,0,0,0-.26-.18L677,371.38Z" transform="translate(-539.94 -245.41)" style="fill:#f8f5f2"/><path d="M684,399.58a.45.45,0,0,1-.2,0l-13.39-6.63a.43.43,0,0,1-.25-.37l-1-14.91a.45.45,0,0,1,.2-.41l12.43-8.28a.45.45,0,0,1,.45,0l13.39,6.62a.45.45,0,0,1,.25.38l1,14.91a.43.43,0,0,1-.2.4l-12.43,8.29A.45.45,0,0,1,684,399.58ZM682,369a.41.41,0,0,0-.19,0l-12.44,8.29a.35.35,0,0,0-.15.31l1,14.91a.35.35,0,0,0,.19.29l13.4,6.62a.32.32,0,0,0,.34,0l12.44-8.29a.32.32,0,0,0,.15-.3l-1-14.92a.34.34,0,0,0-.19-.28L682.19,369Z" transform="translate(-539.94 -245.41)" style="fill:#f8f5f2"/><path d="M678,400a.48.48,0,0,1-.36-.16l-10.69-12a.47.47,0,0,1-.09-.47l5.05-15.26a.47.47,0,0,1,.36-.32L688,368.5a.47.47,0,0,1,.46.15l10.69,12a.47.47,0,0,1,.09.47l-5.05,15.26a.49.49,0,0,1-.36.32L678.05,400Zm10.1-31.36H688l-15.74,3.25a.37.37,0,0,0-.28.25l-5.05,15.25a.36.36,0,0,0,.08.36l10.68,12a.37.37,0,0,0,.35.12l15.74-3.26a.36.36,0,0,0,.28-.24l5.05-15.26a.37.37,0,0,0-.08-.36l-10.68-12A.39.39,0,0,0,688.05,368.6Z" transform="translate(-539.94 -245.41)" style="fill:#f8f5f2"/><path d="M688.82,401h-.09l-17-3.09a.53.53,0,0,1-.4-.34l-5.82-16.27a.53.53,0,0,1,.1-.51l11.17-13.17a.55.55,0,0,1,.49-.18l17,3.1a.51.51,0,0,1,.4.33l5.82,16.27a.55.55,0,0,1-.09.51l-11.18,13.18A.55.55,0,0,1,688.82,401Zm-11.64-33.45a.39.39,0,0,0-.3.14L665.7,380.87a.4.4,0,0,0-.07.39l5.82,16.27a.42.42,0,0,0,.3.26l17,3.09a.37.37,0,0,0,.37-.13l11.18-13.18a.39.39,0,0,0,.07-.39l-5.82-16.27a.37.37,0,0,0-.3-.25l-17-3.1Z" transform="translate(-539.94 -245.41)" style="fill:#f8f5f2"/><path d="M682.25,403.34a.54.54,0,0,1-.3-.08l-15.7-9.93a.56.56,0,0,1-.26-.5l.75-18.56a.55.55,0,0,1,.3-.47l16.45-8.63a.54.54,0,0,1,.56,0l15.7,9.93a.55.55,0,0,1,.26.49l-.75,18.57a.55.55,0,0,1-.3.47l-16.45,8.63A.58.58,0,0,1,682.25,403.34Zm1.5-38.11a.49.49,0,0,0-.2,0l-16.45,8.63a.45.45,0,0,0-.23.36l-.75,18.57a.43.43,0,0,0,.2.37l15.7,9.94a.44.44,0,0,0,.43,0l16.45-8.63a.43.43,0,0,0,.23-.36l.75-18.56a.44.44,0,0,0-.2-.38L684,365.3A.39.39,0,0,0,683.75,365.23Z" transform="translate(-539.94 -245.41)" style="fill:#f8f5f2"/><path d="M674.77,403a.58.58,0,0,1-.48-.25l-11.66-16.23a.64.64,0,0,1-.06-.6l8.23-18.2a.61.61,0,0,1,.49-.35l19.88-2a.58.58,0,0,1,.54.25l11.66,16.23a.62.62,0,0,1,.06.59L695.2,400.7a.62.62,0,0,1-.49.35l-19.88,2Zm16.46-37.47h-.05l-19.88,2a.47.47,0,0,0-.37.27L662.7,386a.47.47,0,0,0,0,.46L674.4,402.7a.43.43,0,0,0,.42.18l19.88-2a.47.47,0,0,0,.37-.27l8.23-18.21a.43.43,0,0,0,0-.45L691.6,365.75A.47.47,0,0,0,691.23,365.56Z" transform="translate(-539.94 -245.41)" style="fill:#f8f5f2"/><path d="M688.08,405.74a.57.57,0,0,1-.18,0l-20.62-6a.64.64,0,0,1-.44-.47l-5.08-20.87a.63.63,0,0,1,.18-.62l15.53-14.83a.67.67,0,0,1,.63-.16l20.62,6a.62.62,0,0,1,.44.46l5.08,20.88a.61.61,0,0,1-.18.61l-15.53,14.84A.63.63,0,0,1,688.08,405.74ZM661.9,378.31,667,399.18a.48.48,0,0,0,.34.35l20.61,6a.53.53,0,0,0,.48-.12L704,390.62a.54.54,0,0,0,.14-.48L699,369.27a.5.5,0,0,0-.34-.36l-20.61-6a.49.49,0,0,0-.48.11L662,377.83a.52.52,0,0,0-.14.48Z" transform="translate(-539.94 -245.41)" style="fill:#f8f5f2"/><path d="M679.66,407.77a.68.68,0,0,1-.43-.15L661.11,393.3h0a.67.67,0,0,1-.26-.64l3.34-22.86a.7.7,0,0,1,.43-.54l21.46-8.54a.71.71,0,0,1,.69.1l18.12,14.33a.66.66,0,0,1,.26.64l-3.34,22.85a.7.7,0,0,1-.43.55l-21.46,8.53A.6.6,0,0,1,679.66,407.77Zm6.68-46.93a.58.58,0,0,0-.19,0l-21.47,8.54a.55.55,0,0,0-.33.41L661,392.68a.51.51,0,0,0,.2.49h0l18.12,14.32a.53.53,0,0,0,.53.08L701.32,399a.55.55,0,0,0,.33-.42L705,375.77a.54.54,0,0,0-.2-.5L686.67,361A.57.57,0,0,0,686.34,360.84Z" transform="translate(-539.94 -245.41)" style="fill:#f8f5f2"/><path d="M695.3,406.55h0l-24.84-.14a.75.75,0,0,1-.64-.38l-12.3-21.58a.73.73,0,0,1,0-.74l12.54-21.44a.74.74,0,0,1,.64-.37h0l24.84.14a.73.73,0,0,1,.64.37L708.48,384a.75.75,0,0,1,0,.75l-12.54,21.44A.74.74,0,0,1,695.3,406.55Zm-24.6-44.47a.55.55,0,0,0-.49.28L657.67,383.8a.58.58,0,0,0,0,.57L670,406a.58.58,0,0,0,.49.28l24.84.14h0a.58.58,0,0,0,.49-.28l12.54-21.44a.58.58,0,0,0,0-.57L696,362.5a.56.56,0,0,0-.49-.29l-24.84-.13Z" transform="translate(-539.94 -245.41)" style="fill:#f8f5f2"/><path d="M686.57,411.49a.8.8,0,0,1-.3-.06l-24.71-10.14a.82.82,0,0,1-.49-.63l-3.57-26.47a.81.81,0,0,1,.3-.74l21.14-16.33a.8.8,0,0,1,.79-.1l24.71,10.14a.82.82,0,0,1,.49.63l3.57,26.47a.82.82,0,0,1-.3.74l-21.14,16.32A.79.79,0,0,1,686.57,411.49Zm-7.14-54.35a.67.67,0,0,0-.38.13L657.92,373.6a.61.61,0,0,0-.23.56l3.57,26.47a.63.63,0,0,0,.37.49l24.71,10.14a.64.64,0,0,0,.61-.08l21.13-16.33a.62.62,0,0,0,.23-.57l-3.57-26.46a.61.61,0,0,0-.37-.49l-24.71-10.14A.59.59,0,0,0,679.43,357.14Z" transform="translate(-539.94 -245.41)" style="fill:#f8f5f2"/><path d="M675.9,412.91a.86.86,0,0,1-.6-.25L654.75,392.6a.85.85,0,0,1-.23-.83l7.1-27.82a.86.86,0,0,1,.6-.62l27.65-7.76a.87.87,0,0,1,.83.21l20.55,20.06a.86.86,0,0,1,.23.83l-7.1,27.83a.87.87,0,0,1-.6.62l-27.65,7.76A.85.85,0,0,1,675.9,412.91Zm14.2-57.17-.18,0-27.64,7.77a.66.66,0,0,0-.47.47l-7.1,27.82a.69.69,0,0,0,.18.64l20.55,20.06a.65.65,0,0,0,.64.16l27.64-7.76a.66.66,0,0,0,.47-.47l7.1-27.83a.67.67,0,0,0-.18-.63l-20.55-20.06A.66.66,0,0,0,690.1,355.74Z" transform="translate(-539.94 -245.41)" style="fill:#f8f5f2"/><path d="M695.4,413.43h-.1L664.61,410a.9.9,0,0,1-.74-.54L651.46,381.2a1,1,0,0,1,.1-.92l18.29-24.88a.93.93,0,0,1,.85-.37l30.69,3.39a1,1,0,0,1,.75.55l12.4,28.28a1,1,0,0,1-.1.92l-18.29,24.88A.94.94,0,0,1,695.4,413.43Zm-24.8-58.19a.68.68,0,0,0-.57.29l-18.29,24.88a.7.7,0,0,0-.08.7l12.4,28.28a.73.73,0,0,0,.57.42l30.7,3.39a.69.69,0,0,0,.64-.28L714.26,388a.7.7,0,0,0,.08-.7l-12.4-28.28a.73.73,0,0,0-.57-.42l-30.7-3.4Z" transform="translate(-539.94 -245.41)" style="fill:#f8f5f2"/><path d="M684,418.41a1,1,0,0,1-.47-.12l-29.23-15.75a1,1,0,0,1-.52-.85l-1-33.19a1,1,0,0,1,.47-.87l28.25-17.44a1,1,0,0,1,1,0l29.23,15.75a1,1,0,0,1,.52.84l1,33.19a1,1,0,0,1-.48.88L684.5,418.26A1,1,0,0,1,684,418.41ZM682,350.27a.78.78,0,0,0-.41.12l-28.25,17.44a.76.76,0,0,0-.36.67l1,33.18a.75.75,0,0,0,.39.65l29.23,15.75a.78.78,0,0,0,.77,0l28.25-17.44A.76.76,0,0,0,713,400l-1-33.19a.79.79,0,0,0-.4-.65l-29.23-15.74A.7.7,0,0,0,682,350.27Z" transform="translate(-539.94 -245.41)" style="fill:#f8f5f2"/><path d="M670.61,418.78a1.11,1.11,0,0,1-.83-.39L647,390.91a1.08,1.08,0,0,1-.18-1.05l12.4-33.48a1.09,1.09,0,0,1,.82-.69l35.2-6a1.06,1.06,0,0,1,1,.37L719,377.53a1.1,1.1,0,0,1,.18,1.06l-12.4,33.48a1.06,1.06,0,0,1-.82.68l-35.19,6Zm24.65-68.84-35.19,6a.85.85,0,0,0-.64.52L647,389.94a.82.82,0,0,0,.14.81L670,418.23a.84.84,0,0,0,.77.28l35.19-6a.84.84,0,0,0,.64-.53L719,378.5a.82.82,0,0,0-.14-.81L696,350.22a.84.84,0,0,0-.77-.28Z" transform="translate(-539.94 -245.41)" style="fill:#f8f5f2"/><path d="M694.66,422l-.24,0-37.51-8.19a1.13,1.13,0,0,1-.85-.77L644.4,376.38a1.14,1.14,0,0,1,.24-1.12l25.85-28.39a1.14,1.14,0,0,1,1.09-.35l37.51,8.19a1.16,1.16,0,0,1,.85.78l11.66,36.57a1.17,1.17,0,0,1-.24,1.13l-25.85,28.38A1.12,1.12,0,0,1,694.66,422Zm-23.32-75.18a.86.86,0,0,0-.65.29l-25.85,28.38a.87.87,0,0,0-.18.86l11.66,36.58a.87.87,0,0,0,.65.59l37.5,8.19a.9.9,0,0,0,.84-.27L721.16,393a.87.87,0,0,0,.18-.86l-11.66-36.57A.85.85,0,0,0,709,355l-37.5-8.19A.65.65,0,0,0,671.34,346.77Z" transform="translate(-539.94 -245.41)" style="fill:#f8f5f2"/><path d="M679.89,426.62a1.22,1.22,0,0,1-.69-.21l-34.1-23.27a1.24,1.24,0,0,1-.53-1.12l3.1-41.16a1.25,1.25,0,0,1,.7-1L685.57,342a1.21,1.21,0,0,1,1.23.09l34.1,23.27a1.27,1.27,0,0,1,.54,1.12l-3.11,41.16a1.25,1.25,0,0,1-.7,1l-37.2,17.89A1.25,1.25,0,0,1,679.89,426.62Zm6.22-84.5a1,1,0,0,0-.41.09L648.5,360.1a.94.94,0,0,0-.54.78L644.86,402a1,1,0,0,0,.41.86l34.09,23.27a1,1,0,0,0,.94.07l37.2-17.89a1,1,0,0,0,.54-.78l3.1-41.17a.94.94,0,0,0-.41-.85l-34.09-23.27A.94.94,0,0,0,686.11,342.12Z" transform="translate(-539.94 -245.41)" style="fill:#f8f5f2"/><path d="M663.32,425.34a1.34,1.34,0,0,1-1.11-.59L637.6,387.81a1.33,1.33,0,0,1-.09-1.32l19.68-39.79a1.34,1.34,0,0,1,1.11-.74l44.29-2.85a1.35,1.35,0,0,1,1.2.59l24.61,36.93a1.32,1.32,0,0,1,.09,1.33l-19.68,39.79a1.37,1.37,0,0,1-1.11.74l-44.29,2.85Zm39.35-81.92h-.06l-44.29,2.85a1,1,0,0,0-.85.57l-19.68,39.78a1,1,0,0,0,.07,1l24.62,36.93a1,1,0,0,0,.91.45l44.29-2.85a1,1,0,0,0,.85-.56l19.68-39.79a1,1,0,0,0-.07-1l-24.61-36.94A1,1,0,0,0,702.67,343.42Z" transform="translate(-539.94 -245.41)" style="fill:#f8f5f2"/><path d="M692.67,432.39a1.43,1.43,0,0,1-.46-.07l-45.3-15a1.42,1.42,0,0,1-.95-1.07l-9.67-46.74a1.43,1.43,0,0,1,.45-1.35l35.64-31.74a1.45,1.45,0,0,1,1.41-.29l45.3,15a1.45,1.45,0,0,1,.95,1.07l9.67,46.74a1.45,1.45,0,0,1-.45,1.36L693.62,432A1.43,1.43,0,0,1,692.67,432.39ZM647,417l45.31,15a1.1,1.1,0,0,0,1.07-.22L729,400a1.1,1.1,0,0,0,.34-1l-9.67-46.74a1.06,1.06,0,0,0-.72-.81l-45.31-15a1.07,1.07,0,0,0-1.07.22L637,368.41a1.1,1.1,0,0,0-.34,1l9.67,46.73A1.06,1.06,0,0,0,647,417Z" transform="translate(-539.94 -245.41)" style="fill:#f8f5f2"/><path d="M673.81,436.25a1.61,1.61,0,0,1-1-.36l-39.13-33.21a1.55,1.55,0,0,1-.51-1.45l9.19-50.49a1.52,1.52,0,0,1,1-1.17l48.32-17.29a1.55,1.55,0,0,1,1.52.28l39.13,33.2a1.56,1.56,0,0,1,.51,1.45l-9.19,50.49a1.55,1.55,0,0,1-1,1.18l-48.32,17.28A1.54,1.54,0,0,1,673.81,436.25Zm18.38-103.69a1.12,1.12,0,0,0-.4.07l-48.32,17.28a1.2,1.2,0,0,0-.76.9l-9.19,50.49a1.2,1.2,0,0,0,.4,1.11l39.13,33.2a1.19,1.19,0,0,0,1.16.21l48.32-17.29a1.19,1.19,0,0,0,.76-.89l9.19-50.49a1.2,1.2,0,0,0-.4-1.11L693,332.84A1.14,1.14,0,0,0,692.19,332.56Z" transform="translate(-539.94 -245.41)" style="fill:#f8f5f2"/><path d="M708.63,434.74h-.06l-55.14-2.23a1.64,1.64,0,0,1-1.39-.88L626.4,382.76a1.63,1.63,0,0,1,.07-1.65L656,334.47a1.68,1.68,0,0,1,1.47-.76l55.14,2.23a1.66,1.66,0,0,1,1.4.88l25.63,48.86a1.64,1.64,0,0,1-.07,1.66L710,434A1.68,1.68,0,0,1,708.63,434.74ZM657.36,334.09a1.3,1.3,0,0,0-1.07.59l-29.5,46.64a1.26,1.26,0,0,0,0,1.26l25.64,48.87a1.29,1.29,0,0,0,1.07.67l55.14,2.23a1.27,1.27,0,0,0,1.12-.59l29.5-46.63a1.28,1.28,0,0,0,0-1.27L713.62,337a1.28,1.28,0,0,0-1.07-.68l-55.13-2.23Z" transform="translate(-539.94 -245.41)" style="fill:#f8f5f2"/><path d="M688.88,445a1.92,1.92,0,0,1-.74-.15l-54.07-24.44a1.76,1.76,0,0,1-1-1.44l-5.88-59a1.79,1.79,0,0,1,.73-1.62l48.2-34.61a1.78,1.78,0,0,1,1.77-.18L731.93,348a1.79,1.79,0,0,1,1,1.45l5.88,59a1.77,1.77,0,0,1-.73,1.62l-48.19,34.61A1.81,1.81,0,0,1,688.88,445ZM677.12,323.82a1.4,1.4,0,0,0-.79.25l-48.19,34.62a1.34,1.34,0,0,0-.56,1.24l5.87,59a1.35,1.35,0,0,0,.8,1.1l54.07,24.44a1.39,1.39,0,0,0,1.35-.14l48.2-34.61a1.39,1.39,0,0,0,.56-1.24l-5.88-59a1.37,1.37,0,0,0-.8-1.11l-54.07-24.43A1.34,1.34,0,0,0,677.12,323.82Z" transform="translate(-539.94 -245.41)" style="fill:#f8f5f2"/><path d="M665.08,447.37a1.94,1.94,0,0,1-1.39-.59l-44.06-46.14a1.94,1.94,0,0,1-.46-1.86l17.93-61.23a1.9,1.9,0,0,1,1.38-1.32l62-15.1a1.93,1.93,0,0,1,1.84.54l44.06,46.14a1.92,1.92,0,0,1,.46,1.86L728.9,430.9a1.92,1.92,0,0,1-1.38,1.32l-62,15.09A1.74,1.74,0,0,1,665.08,447.37Zm35.84-125.84a1.32,1.32,0,0,0-.34,0l-62,15.09a1.48,1.48,0,0,0-1.06,1l-17.92,61.24a1.45,1.45,0,0,0,.34,1.42L664,446.46a1.46,1.46,0,0,0,1.4.42l62-15.1a1.46,1.46,0,0,0,1.06-1l17.92-61.23a1.45,1.45,0,0,0-.34-1.42L702,322A1.47,1.47,0,0,0,700.92,321.53Z" transform="translate(-539.94 -245.41)" style="fill:#f8f5f2"/><path d="M708.35,450l-.3,0-67.88-9.93a2.06,2.06,0,0,1-1.62-1.27l-25.34-63.75a2.08,2.08,0,0,1,.29-2L656,319.2a2,2,0,0,1,1.91-.76l67.88,9.92a2.08,2.08,0,0,1,1.62,1.28l25.34,63.74a2.08,2.08,0,0,1-.29,2L710,449.25A2.07,2.07,0,0,1,708.35,450ZM657.65,318.9a1.58,1.58,0,0,0-1.23.6l-42.54,53.82a1.59,1.59,0,0,0-.22,1.56L639,438.63a1.6,1.6,0,0,0,1.24,1l67.88,9.92a1.6,1.6,0,0,0,1.46-.58l42.54-53.83a1.59,1.59,0,0,0,.22-1.56L727,329.82a1.59,1.59,0,0,0-1.24-1l-67.88-9.92Z" transform="translate(-539.94 -245.41)" style="fill:#f8f5f2"/><path d="M682.59,460.2a2.2,2.2,0,0,1-1.11-.3L617.8,422.66a2.22,2.22,0,0,1-1.1-1.92l.41-73.76a2.2,2.2,0,0,1,1.12-1.91l64.08-36.54a2.23,2.23,0,0,1,2.21,0l63.68,37.23a2.24,2.24,0,0,1,1.1,1.92l-.41,73.77a2.2,2.2,0,0,1-1.12,1.91l-64.08,36.53A2.26,2.26,0,0,1,682.59,460.2Zm0-151.21-64.09,36.53a1.7,1.7,0,0,0-.85,1.46l-.41,73.76a1.69,1.69,0,0,0,.84,1.47l63.68,37.24a1.7,1.7,0,0,0,1.69,0l64.09-36.53a1.7,1.7,0,0,0,.85-1.46l.41-73.77a1.72,1.72,0,0,0-.84-1.47L684.26,309a1.68,1.68,0,0,0-1.69,0Z" transform="translate(-539.94 -245.41)" style="fill:#f8f5f2"/><path d="M652.88,460a2.39,2.39,0,0,1-1.88-.92l-48.49-62.78a2.39,2.39,0,0,1-.32-2.36l30.12-73.37a2.4,2.4,0,0,1,1.89-1.46l78.6-10.6a2.39,2.39,0,0,1,2.2.9l48.49,62.77a2.39,2.39,0,0,1,.32,2.36L733.69,447.9a2.37,2.37,0,0,1-1.88,1.45L653.2,460Zm-20-139.22-30.12,73.38a1.82,1.82,0,0,0,.24,1.8l48.49,62.77a1.8,1.8,0,0,0,1.68.69l78.61-10.6a1.82,1.82,0,0,0,1.44-1.11l30.12-73.38a1.82,1.82,0,0,0-.24-1.8l-48.49-62.78a1.83,1.83,0,0,0-1.68-.69l-78.61,10.61a1.82,1.82,0,0,0-1.44,1.11Z" transform="translate(-539.94 -245.41)" style="fill:#f8f5f2"/><path d="M706.05,468.89a2.27,2.27,0,0,1-.63-.08l-82.64-21.08a2.58,2.58,0,0,1-1.83-1.79L597.9,363.82a2.53,2.53,0,0,1,.63-2.47l59.58-61a2.59,2.59,0,0,1,2.47-.69l82.64,21.09a2.58,2.58,0,0,1,1.83,1.79l23.05,82.11a2.55,2.55,0,0,1-.63,2.48l-59.58,61A2.58,2.58,0,0,1,706.05,468.89ZM598.48,363.66l23,82.12a2,2,0,0,0,1.4,1.36l82.64,21.09a2,2,0,0,0,1.89-.53l59.58-61a2,2,0,0,0,.48-1.9l-23-82.11a2,2,0,0,0-1.4-1.37l-82.64-21.09a2,2,0,0,0-1.89.53l-59.58,61a1.94,1.94,0,0,0-.48,1.89Z" transform="translate(-539.94 -245.41)" style="fill:#f8f5f2"/><path d="M672.91,478.12a2.76,2.76,0,0,1-1.63-.53l-73.89-54.31a2.76,2.76,0,0,1-1.11-2.52l10.09-91.15a2.75,2.75,0,0,1,1.63-2.22l84-36.84a2.76,2.76,0,0,1,2.74.31l73.89,54.31a2.75,2.75,0,0,1,1.11,2.52l-10.09,91.15a2.78,2.78,0,0,1-1.63,2.22l-84,36.83A2.69,2.69,0,0,1,672.91,478.12Zm-75.14-55.36,73.9,54.31a2.12,2.12,0,0,0,2.09.23l84-36.84a2.12,2.12,0,0,0,1.25-1.69l10.09-91.15a2.12,2.12,0,0,0-.85-1.93l-73.89-54.31a2.14,2.14,0,0,0-2.1-.24l-84,36.84a2.12,2.12,0,0,0-1.25,1.7l-10.09,91.15a2.14,2.14,0,0,0,.85,1.93Z" transform="translate(-539.94 -245.41)" style="fill:#f8f5f2"/><path d="M636.23,474a3,3,0,0,1-2.52-1.4l-51.79-83.92a2.94,2.94,0,0,1-.09-2.95l46.77-86.81a3,3,0,0,1,2.52-1.56l98.57-2.9a3,3,0,0,1,2.6,1.41l51.8,83.91a3,3,0,0,1,.08,3L737.4,469.54a3,3,0,0,1-2.52,1.55L636.31,474Zm93.54-178.84h-.06l-98.57,2.9a2.24,2.24,0,0,0-1.92,1.19l-46.78,86.81a2.26,2.26,0,0,0,.07,2.26l51.79,83.91a2.21,2.21,0,0,0,2,1.08l98.57-2.9a2.29,2.29,0,0,0,1.93-1.19l46.77-86.81a2.25,2.25,0,0,0-.07-2.26L731.7,296.22A2.27,2.27,0,0,0,729.77,295.15Z" transform="translate(-539.94 -245.41)" style="fill:#f8f5f2"/><path d="M700.83,491.92a3.22,3.22,0,0,1-1.1-.19l-99.44-36.82a3.2,3.2,0,0,1-2-2.44L580.43,347.94a3.19,3.19,0,0,1,1.1-3l81.6-67.71a3.19,3.19,0,0,1,3.14-.53l99.44,36.81a3.22,3.22,0,0,1,2,2.45L785.57,420.5a3.21,3.21,0,0,1-1.1,3l-81.6,67.7A3.21,3.21,0,0,1,700.83,491.92ZM665.17,277.27a2.43,2.43,0,0,0-1.56.56L582,345.54a2.41,2.41,0,0,0-.84,2.28L599,452.34a2.45,2.45,0,0,0,1.55,1.87L700,491a2.45,2.45,0,0,0,2.4-.41L784,422.91a2.42,2.42,0,0,0,.84-2.28L767,316.11a2.46,2.46,0,0,0-1.55-1.88L666,277.42A2.44,2.44,0,0,0,665.17,277.27Z" transform="translate(-539.94 -245.41)" style="fill:#f8f5f2"/><path d="M658.69,499a3.43,3.43,0,0,1-2.31-.89l-84.31-76.75a3.43,3.43,0,0,1-1-3.26l24.32-111.39a3.43,3.43,0,0,1,2.3-2.53l108.63-34.64a3.45,3.45,0,0,1,3.34.73l84.31,76.76a3.43,3.43,0,0,1,1,3.26L770.65,461.71a3.43,3.43,0,0,1-2.3,2.53L659.72,498.87A3.35,3.35,0,0,1,658.69,499Zm48.63-228.81a2.61,2.61,0,0,0-.79.12L597.9,305a2.64,2.64,0,0,0-1.76,1.94L571.82,418.3a2.61,2.61,0,0,0,.79,2.49l84.31,76.76a2.64,2.64,0,0,0,2.55.56L768.1,463.47a2.61,2.61,0,0,0,1.76-1.93l24.32-111.39a2.61,2.61,0,0,0-.79-2.49L709.08,270.9A2.59,2.59,0,0,0,707.32,270.22Z" transform="translate(-539.94 -245.41)" style="fill:#f8f5f2"/><path d="M736.13,498.38h-.27l-122.25-9.22a3.7,3.7,0,0,1-3-2.08L557.44,376.59a3.71,3.71,0,0,1,.27-3.67l69.12-101.25a3.66,3.66,0,0,1,3.31-1.6l122.25,9.23a3.69,3.69,0,0,1,3,2.07l53.13,110.49a3.69,3.69,0,0,1-.27,3.66L739.17,496.78A3.69,3.69,0,0,1,736.13,498.38ZM629.87,270.93a2.83,2.83,0,0,0-2.33,1.22L558.43,373.41a2.8,2.8,0,0,0-.21,2.81L611.35,486.7a2.82,2.82,0,0,0,2.32,1.58l122.25,9.23a2.79,2.79,0,0,0,2.54-1.22L807.57,395a2.78,2.78,0,0,0,.21-2.8L754.65,281.75a2.83,2.83,0,0,0-2.32-1.59l-122.25-9.22Z" transform="translate(-539.94 -245.41)" style="fill:#f8f5f2"/><path d="M691.47,519.73a4,4,0,0,1-1.75-.41L571.56,460.88a4,4,0,0,1-2.2-3.29L560.89,326a4,4,0,0,1,1.76-3.55l109.69-73.11a3.94,3.94,0,0,1,3.94-.25l118.17,58.44a4,4,0,0,1,2.19,3.29l8.47,131.55a4,4,0,0,1-1.76,3.54L693.66,519.06A3.94,3.94,0,0,1,691.47,519.73ZM674.53,249.65a3,3,0,0,0-1.68.51L563.16,323.27a3,3,0,0,0-1.34,2.71l8.47,131.55A3,3,0,0,0,572,460l118.16,58.45a3.05,3.05,0,0,0,3-.2l109.69-73.11a3,3,0,0,0,1.34-2.71l-8.47-131.55A3,3,0,0,0,794,308.4L675.87,250A3,3,0,0,0,674.53,249.65Z" transform="translate(-539.94 -245.41)" style="fill:#f8f5f2"/><path d="M638.46,523a4.27,4.27,0,0,1-3.18-1.42L541,415.76a4.26,4.26,0,0,1-.86-4.17L584.7,277a4.27,4.27,0,0,1,3.18-2.83l138.8-28.71a4.26,4.26,0,0,1,4,1.34L825,352.69a4.27,4.27,0,0,1,.87,4.16L781.3,491.42a4.27,4.27,0,0,1-3.18,2.83L639.32,523A4.19,4.19,0,0,1,638.46,523Zm88.43-276.57L588.08,275.18a3.23,3.23,0,0,0-2.43,2.16L541.1,411.91a3.26,3.26,0,0,0,.66,3.18L636,521a3.23,3.23,0,0,0,3.08,1l138.81-28.7a3.26,3.26,0,0,0,2.43-2.17L824.9,356.54a3.26,3.26,0,0,0-.66-3.18L730,247.5a3.25,3.25,0,0,0-3.08-1Z" transform="translate(-539.94 -245.41)" style="fill:#f8f5f2"/></svg>