<svg xmlns="http://www.w3.org/2000/svg" viewBox="0 0 128.47 125"><path d="M687.88,397.78l-.08,0-17-5.83,0-.07,7.33-21.41.08,0,17,5.83,0,.07Zm-16.91-6,16.81,5.76L695,376.4l-16.81-5.75Z" transform="translate(-618.76 -321.61)" style="fill:#fff"/><path d="M673.73,396.25l0-.08-4.62-18.38.08,0,23.1-5.8,0,.08,4.62,18.38-.08,0Zm-4.43-18.33,4.55,18.13,22.86-5.74-4.56-18.14Z" transform="translate(-618.76 -321.61)" style="fill:#fff"/><path d="M685.4,400l-.07-.06L667,382.89l.07-.07,13.57-14.61.07.06L699,385.33l-.07.07Zm-18.18-17.13,18.17,16.88,13.39-14.42-18.17-16.88Z" transform="translate(-618.76 -321.61)" style="fill:#fff"/><path d="M691.11,399l-.09,0-20.68-3.61v-.09l4.54-26,.09,0,20.68,3.61V373Zm-20.56-3.78L691,398.75,695.45,373,675,369.47Z" transform="translate(-618.76 -321.61)" style="fill:#fff"/><path d="M674.54,399.79l0-.09-8.68-20.33.09,0,25.56-10.9,0,.09,8.68,20.33-.09,0Zm-8.46-20.32,8.56,20.06,25.28-10.78-8.56-20.06Z" transform="translate(-618.76 -321.61)" style="fill:#fff"/><path d="M688.66,402l-.08-.06-24.28-16.3.06-.09,13-19.31.08.06L701.7,382.6l-.06.08Zm-24.07-16.42,24,16.13,12.8-19.05-24-16.13Z" transform="translate(-618.76 -321.61)" style="fill:#fff"/><path d="M695.06,399.75H695l-24.49-.38v-.11l.48-30.77h.11l24.49.38V369Zm-24.38-.6,24.16.37.48-30.45-24.16-.37Z" transform="translate(-618.76 -321.61)" style="fill:#fff"/><path d="M676.11,403.72l-.06-.1-13.7-21.84.1-.06,27.44-17.22.06.1,13.7,21.84-.09.06Zm-13.44-21.86,13.51,21.54,27.15-17-13.51-21.55Z" transform="translate(-618.76 -321.61)" style="fill:#fff"/><path d="M692.79,403.68l-31-14.41,11.47-24.73,31,14.41Zm-30.73-14.53,30.61,14.21,11.27-24.29-30.61-14.2Z" transform="translate(-618.76 -321.61)" style="fill:#fff"/><path d="M671.34,404l0-.13-5.06-35.54.13,0,28.27-4,0,.13,5.06,35.54-.13,0Zm-4.79-35.45,5,35.16,27.9-4-5-35.17Z" transform="translate(-618.76 -321.61)" style="fill:#fff"/><path d="M678.64,408l-.09-.11L658.78,385.2l.1-.09,28.48-24.84.09.1L707.22,383l-.1.09Zm-19.48-22.74,19.5,22.36L706.84,383l-19.5-22.35Z" transform="translate(-618.76 -321.61)" style="fill:#fff"/><path d="M697.84,404.87l-.13,0-38.26-10.9,0-.14,8.67-30.43.13,0,38.26,10.89,0,.14Zm-38-11.13,37.85,10.78,8.55-30-37.85-10.78Z" transform="translate(-618.76 -321.61)" style="fill:#fff"/><path d="M673.19,409.11l-.05-.14-12.31-40,32-9.84.05.14,12.31,40Zm-12-40,12.18,39.59,31.42-9.67-12.18-39.59Z" transform="translate(-618.76 -321.61)" style="fill:#fff"/><path d="M682.33,412.38l-.12-.1-26.91-22.5.1-.12,28.27-33.81.12.1,26.91,22.49-.1.12Zm-26.59-22.64,26.55,22.19,28-33.45-26.55-22.19Z" transform="translate(-618.76 -321.61)" style="fill:#fff"/><path d="M703.89,405.31l-.17,0-46.06-5.57,0-.16,4.43-36.65.17,0,46.06,5.57,0,.16ZM658,399.43l45.57,5.51L708,368.79l-45.57-5.51Z" transform="translate(-618.76 -321.61)" style="fill:#fff"/><path d="M676.26,414.7l-.08-.15-21.49-43.86.16-.08,34.89-17.09.08.15,21.49,43.86-.16.08Zm-21.1-43.85,21.26,43.39,34.42-16.87L689.58,354Z" transform="translate(-618.76 -321.61)" style="fill:#fff"/><path d="M687.38,416.79l-.16-.09-35.09-21,.09-.16,26.4-44.11.16.09,35.09,21-.09.16Zm-34.75-21.22,34.62,20.72,26.12-43.64-34.62-20.72Z" transform="translate(-618.76 -321.61)" style="fill:#fff"/><path d="M656.66,406.72v-.2l-1.58-43h.19l54.08-2v.19l1.58,43h-.19Zm-1.19-42.85L657,406.32l53.5-2L709,361.9Z" transform="translate(-618.76 -321.61)" style="fill:#fff"/><path d="M680.82,420.58l-.12-.16-32.76-46.6.17-.12,37.07-26.06.12.16,32.76,46.61-.17.11Zm-32.31-46.67L680.91,420l36.58-25.71-32.4-46.11Z" transform="translate(-618.76 -321.61)" style="fill:#fff"/><path d="M694,421l-.2-.08-44.26-17.79.08-.19L672,347.26l.2.08,44.26,17.79-.08.2Zm-43.91-18.1,43.67,17.55,22.13-55-43.67-17.56Z" transform="translate(-618.76 -321.61)" style="fill:#fff"/><path d="M656.78,415l0-.22-9.68-49.28.23,0,61.93-12.16,0,.22,9.68,49.28-.23,0Zm-9.19-49.14,9.54,48.61,61.28-12-9.54-48.62Z" transform="translate(-618.76 -321.61)" style="fill:#fff"/><path d="M687.14,426.53l-.17-.17-46.23-47.71.17-.17,38-36.78.17.17,46.24,47.7-.17.17ZM641.4,378.66l45.75,47.2,37.45-36.3-45.75-47.2Z" transform="translate(-618.76 -321.61)" style="fill:#fff"/><path d="M702.41,424.56l-.24-.06-54.24-12.42.05-.24,15.61-68.17.24.05,54.24,12.42-.05.24Zm-53.89-12.85L702,424l15.45-67.45L664,344.26Z" transform="translate(-618.76 -321.61)" style="fill:#fff"/><path d="M658.42,424.43l-.09-.24-20.13-55,.25-.09,69.13-25.3.09.25,20.13,55-.25.09ZM638.87,369.5l19.86,54.26,68.4-25-19.86-54.27Z" transform="translate(-618.76 -321.61)" style="fill:#fff"/><path d="M695.51,432.22l-62.2-46.69L670.49,336l62.2,46.69Zm-61.42-46.8,61.31,46,36.52-48.65-61.32-46Z" transform="translate(-618.76 -321.61)" style="fill:#fff"/><path d="M712.74,427.16l-.29,0-64.75-4.41,0-.29,5.54-81.38.29,0,64.75,4.41,0,.29Zm-64.42-5,63.88,4.35L717.68,346l-63.88-4.35Z" transform="translate(-618.76 -321.61)" style="fill:#fff"/><path d="M662,435l-33.37-60L704,333.18l33.37,59.95ZM629.5,375.33l32.78,58.88L736.5,392.9,703.72,334Z" transform="translate(-618.76 -321.61)" style="fill:#fff"/><path d="M706.18,437.25,626,394.81,659.82,331,740,373.41Zm-79.29-42.71,79,41.84,33.19-62.7-79-41.84Z" transform="translate(-618.76 -321.61)" style="fill:#fff"/><path d="M649.38,435l0-.33-8.46-94.77,75.73-6.76,0,.34,8.46,94.76Zm-7.76-94.48L650,434.31l74.38-6.64L716,333.91Z" transform="translate(-618.76 -321.61)" style="fill:#fff"/><path d="M668.15,446.61l-49.39-63,79.09-62,49.39,63Zm-48.39-62.86,48.51,61.86,78-61.14-48.51-61.86Z" transform="translate(-618.76 -321.61)" style="fill:#fff"/><path d="M719.4,441.1l-.35-.13-99.74-34.14.12-.35,27.17-79.35.35.12,99.74,34.14-.12.35Zm-99.13-34.73,98.67,33.77,26.8-78.28-98.68-33.78Z" transform="translate(-618.76 -321.61)" style="fill:#fff"/></svg>