<?xml version="1.0" encoding="utf-8"?>
<!-- Generator: Adobe Illustrator 23.0.6, SVG Export Plug-In . SVG Version: 6.00 Build 0)  -->
<svg version="1.1" id="Layer_1" xmlns="http://www.w3.org/2000/svg" xmlns:xlink="http://www.w3.org/1999/xlink" x="0px" y="0px"
	 viewBox="0 0 931.2 496.2" style="enable-background:new 0 0 931.2 496.2;" xml:space="preserve">
<style type="text/css">
	.st0{fill:#F5F8F2;}
</style>
<title>wavy-footer</title>
<g>
	<g id="Layer_1-2">
		<g id="Layer_1-2-2">
			<path class="st0" d="M930.6,187.1c0,0-10.5,7.2-10.5,7.2C900.7,207.5,882.3,220,849,220c-5.9,0-11.8-0.4-17.6-1
				c-39.2-4.4-67.1-25.1-94.1-45.1c-26.8-19.9-52.1-38.7-85.9-39.1h-3.2c-38,0-58,8.5-89.1,37.8c-10.1,9.5-18.5,18-25.9,25.5
				c-24.1,24.3-38.6,38.9-67.3,43.2c-2.7,0.4-5.4,0.6-8.1,0.6c-23.6,0-42.9-15.5-61.8-30.8c-18.9-15.2-39.9-28.8-74-26.2
				c0,0,0,0,0,0c-62.7,12.6-103.7,79.6-115.1,121.2c-8.1,29.6-13.5,47.1-30.3,63.6c-6.2,6.1-17.3,9.6-30.4,9.6
				c-13.9,0-27.6-4.1-36.5-11c-9.9-7.6-20.4-11.7-30.6-11.7c-13.4,0-25.5,6.9-33.1,19c-5.7,9.1-10.4,23.8-16.3,42.4
				c-6.8,21.6-15.3,48.3-29,77.7h929.8V187.1z"/>
		</g>
	</g>
</g>
</svg>
