<svg xmlns="http://www.w3.org/2000/svg" viewBox="0 0 822.22 438"><defs><style>.cls-1{fill:#f5f8f2;}</style></defs><title>wavy</title><g id="Layer_2" data-name="Layer 2"><g id="Layer_1-2" data-name="Layer 1"><g id="Layer_1-2-2" data-name="Layer 1-2"><path class="cls-1" d="M.5,373.91c3.2-2.84,6.3-5.73,9.3-8.53,17.14-16,33.33-31.1,62.75-31.1a103.58,103.58,0,0,1,15.53,1.25c34.66,5.27,59.29,30.36,83.1,54.63,23.66,24.1,46,46.86,75.83,47.36h2.82c33.54,0,51.17-10.28,78.66-45.8,8.89-11.46,16.33-21.76,22.89-30.85,21.24-29.4,34.06-47.16,59.41-52.33a35.55,35.55,0,0,1,7.2-.74c20.81,0,37.85,18.82,54.56,37.25s34,37.49,55,37.49a37.14,37.14,0,0,0,10-1.39c55.36-15.31,91.94-100.82,102-151.11,7.16-35.84,11.94-57.09,26.73-77,5.51-7.41,15.28-11.66,26.82-11.66,12.32,0,24.36,5,32.2,13.32,8.74,9.23,18.06,14.12,27,14.12,11.88,0,22.53-8.39,29.23-23,5.06-11,9.16-28.82,14.36-51.32,6-26.07,13.5-58.44,25.61-94H.5Z"/><path d="M820.83,1c-12,35.32-19.42,67.47-25.41,93.36-5.19,22.47-9.29,40.22-14.33,51.22-6.61,14.42-17.1,22.7-28.77,22.7-8.8,0-18-4.83-26.59-14-7.94-8.43-20.11-13.47-32.57-13.47-11.7,0-21.62,4.33-27.22,11.87-14.86,20-19.64,41.28-26.82,77.2-6.08,30.4-19.31,64.41-35.39,91-13.72,22.69-36.35,51.47-66.22,59.74a36.88,36.88,0,0,1-9.85,1.37c-20.8,0-38-19-54.63-37.33s-33.9-37.41-54.93-37.41a35.82,35.82,0,0,0-7.3.75c-25.54,5.21-38.41,23-59.71,52.53-6.56,9.08-14,19.38-22.88,30.84-14.32,18.47-25.21,29.18-36.4,35.81-11.63,6.89-24.18,9.82-42,9.82H247c-29.63-.49-51.9-23.19-75.48-47.21C147.67,365.46,123,340.31,88.15,335a103.2,103.2,0,0,0-15.6-1.25c-29.62,0-45.88,15.17-63.09,31.23-2.74,2.56-5.56,5.19-8.46,7.79V1H820.83m1.39-1H0V375c22-19.35,37.78-40.24,72.55-40.24A103.83,103.83,0,0,1,88,336c69.08,10.51,99,101,159,102h2.83c34.72,0,52.19-11.23,79.17-46,38-49,49.14-76.29,82-83a36,36,0,0,1,7.1-.73c41.4,0,67.3,74.74,109.56,74.74a37.63,37.63,0,0,0,10.12-1.41c53-14.66,91.09-95.33,102.32-151.5,6.81-34.07,11.65-56.62,26.64-76.8,5.67-7.63,15.73-11.46,26.42-11.46,11.43,0,23.57,4.38,31.84,13.16,9.38,10,18.76,14.28,27.32,14.28,12.47,0,23.2-9.15,29.68-23.28,11-24,17.46-79.45,40.22-146Z"/></g></g></g></svg>